<svg width="80" height="34" viewBox="0 0 80 34" fill="none" xmlns="http://www.w3.org/2000/svg">
<rect x="0.6" y="0.6" width="78.6045" height="32.8" rx="5.4" stroke="#555555" stroke-width="1.2"/>
<path fill-rule="evenodd" clip-rule="evenodd" d="M14.3999 15.15C14.3999 14.804 14.6847 14.5234 15.036 14.5234H19.2881C19.6394 14.5234 19.9242 14.804 19.9242 15.15V24.3737C19.9242 24.7198 19.6394 25.0004 19.2881 25.0004H15.036C14.6847 25.0004 14.3999 24.7198 14.3999 24.3737V15.15ZM15.672 15.7767V23.7471H18.6521V15.7767H15.672Z" fill="#555555"/>
<path fill-rule="evenodd" clip-rule="evenodd" d="M22.3517 10.2614C22.3446 10.2693 22.3369 10.2781 22.3286 10.2879C22.2303 10.404 22.1047 10.5878 21.9577 10.8364C21.6664 11.3289 21.3386 11.9934 21.0268 12.6733C20.7167 13.3495 20.4296 14.0253 20.2195 14.5333C20.1146 14.7869 20.0293 14.998 19.9702 15.1454C19.9512 15.1929 19.9349 15.2338 19.9216 15.2673V23.7468H26.0756C26.7798 23.7468 27.4253 23.343 27.7139 22.7216L27.7141 22.7212C29.3375 19.2336 29.2571 17.4109 28.9667 16.5395C28.815 16.0881 28.3713 15.7763 27.8629 15.7763H24.5236C24.1723 15.7763 23.8875 15.4958 23.8875 15.1497V11.314C23.8639 11.2641 23.8144 11.183 23.7191 11.0762C23.5934 10.9354 23.4209 10.7868 23.223 10.6525C23.0255 10.5185 22.8182 10.4094 22.6298 10.3388C22.5151 10.2957 22.4221 10.2724 22.3517 10.2614ZM19.2855 15.1497C18.6919 14.9246 18.6919 14.9245 18.6919 14.9244L18.6985 14.9078L18.7169 14.861C18.733 14.8203 18.7566 14.7608 18.7869 14.6853C18.8474 14.5343 18.9345 14.3189 19.0414 14.0604C19.2549 13.5441 19.5486 12.8527 19.8674 12.1574C20.1846 11.4658 20.5338 10.7545 20.8585 10.2055C21.0195 9.93332 21.1867 9.67993 21.3521 9.4847C21.4345 9.38746 21.5307 9.28757 21.6396 9.20535C21.7401 9.12948 21.9081 9.02498 22.1284 9.00525L22.1368 9.00456C22.4619 8.97972 22.7948 9.05961 23.0827 9.16763C23.3793 9.27896 23.6761 9.43831 23.9445 9.62036C24.2126 9.80219 24.4678 10.0172 24.6744 10.2487C24.873 10.4711 25.0663 10.7529 25.1425 11.0703C25.1539 11.1176 25.1596 11.166 25.1596 11.2146V14.5231H27.8629C28.8937 14.5231 29.8428 15.1573 30.1748 16.1468L30.1751 16.1478C30.6097 17.451 30.5544 19.6259 28.8705 23.2435C28.3703 24.32 27.2667 25 26.0756 25H19.2855C18.9342 25 18.6494 24.7195 18.6494 24.3734V15.1497C18.6494 15.0727 18.6639 14.9963 18.6919 14.9244L19.2855 15.1497ZM22.4123 10.2009C22.4128 10.2006 22.4132 10.2002 22.4136 10.1999C22.417 10.1973 22.4166 10.1981 22.4123 10.2009Z" fill="#555555"/>
<path d="M42.8179 18.1936H44.8771V23.404H42.8179V18.1936ZM37.3423 17.5852H50.3995V19.27H37.3423V17.5852ZM42.8023 11.5324H44.6275V11.8756C44.6275 14.2936 42.5371 16.3996 38.7151 16.852L37.9975 15.2296C41.2579 14.8552 42.8023 13.2172 42.8023 11.8756V11.5324ZM43.0675 11.5324H44.8927V11.8756C44.8927 13.186 46.4527 14.8552 49.6975 15.2296L48.9643 16.852C45.1579 16.4152 43.0675 14.2312 43.0675 11.8756V11.5324ZM38.5123 10.5964H49.2139V12.2344H38.5123V10.5964ZM42.8179 8.974H44.8771V11.158H42.8179V8.974ZM54.9223 11.7664H56.6071V12.328C56.6071 14.9644 55.3279 17.32 52.5823 18.178L51.5839 16.5556C53.9239 15.8224 54.9223 14.0752 54.9223 12.328V11.7664ZM55.2967 11.7664H56.9971V12.328C56.9971 13.9504 58.0111 15.6196 60.3511 16.3216L59.3527 17.944C56.6227 17.1328 55.2967 14.8552 55.2967 12.328V11.7664ZM52.0831 10.6432H59.8363V12.2656H52.0831V10.6432ZM54.9223 9.052H56.9971V11.2516H54.9223V9.052ZM59.3839 13.1392H62.7379V14.8396H59.3839V13.1392ZM61.6927 8.9584H63.7675V19.6444H61.6927V8.9584ZM54.2359 21.4852H64.0951V23.1388H54.2359V21.4852ZM54.2359 18.7552H56.3107V22.5772H54.2359V18.7552Z" fill="#555555"/>
</svg>
