<svg width="14" height="15" viewBox="0 0 14 15" fill="none" xmlns="http://www.w3.org/2000/svg">
<path fill-rule="evenodd" clip-rule="evenodd" d="M6.6405 1.80309C3.49418 1.80309 0.943588 4.35368 0.943588 7.5C0.943588 10.6463 3.49418 13.1969 6.6405 13.1969C9.78682 13.1969 12.3374 10.6463 12.3374 7.5C12.3374 4.35368 9.78682 1.80309 6.6405 1.80309ZM0 7.5C0 3.83255 2.97305 0.859497 6.6405 0.859497C10.3079 0.859497 13.281 3.83255 13.281 7.5C13.281 11.1674 10.3079 14.1405 6.6405 14.1405C2.97305 14.1405 0 11.1674 0 7.5Z" fill="#999999"/>
<path fill-rule="evenodd" clip-rule="evenodd" d="M6.64074 3.60059C6.9013 3.60059 7.11253 3.81182 7.11253 4.07238V7.02817H10.0683C10.3289 7.02817 10.5401 7.2394 10.5401 7.49996C10.5401 7.76053 10.3289 7.97176 10.0683 7.97176H6.64074C6.38017 7.97176 6.16895 7.76053 6.16895 7.49996V4.07238C6.16895 3.81182 6.38017 3.60059 6.64074 3.60059Z" fill="#999999"/>
</svg>
