<svg width="21" height="16" viewBox="0 0 21 16" fill="none" xmlns="http://www.w3.org/2000/svg">
<path fill-rule="evenodd" clip-rule="evenodd" d="M1.20957 6.07411C2.80514 3.60671 5.94961 0.212769 10.748 0.212769C15.5469 0.212769 18.6884 3.6073 20.2865 6.07405L20.287 6.07491C20.951 7.10362 20.9516 8.43127 20.2865 9.4581C18.6909 11.9255 15.5465 15.3194 10.748 15.3194C5.94922 15.3194 2.80769 11.9249 1.2096 9.45816L1.20905 9.45729C0.545125 8.42858 0.544503 7.10094 1.20957 6.07411ZM10.748 1.39552C6.55782 1.39552 3.72357 4.36443 2.20252 6.7167L2.20228 6.71708C1.79113 7.35188 1.79042 8.17663 2.20255 8.81554C3.72699 11.1684 6.55825 14.1367 10.748 14.1367C14.9383 14.1367 17.7725 11.1678 19.2936 8.8155L19.2938 8.81513C19.705 8.18024 19.7057 7.35535 19.2934 6.71641C17.7689 4.36357 14.9377 1.39552 10.748 1.39552Z" fill="#999999"/>
<path fill-rule="evenodd" clip-rule="evenodd" d="M10.7486 5.38435C9.43399 5.38435 8.3683 6.45004 8.3683 7.76463C8.3683 9.07923 9.43399 10.1449 10.7486 10.1449C12.0632 10.1449 13.1289 9.07923 13.1289 7.76463C13.1289 6.45004 12.0632 5.38435 10.7486 5.38435ZM7.18555 7.76463C7.18555 5.79682 8.78077 4.2016 10.7486 4.2016C12.7164 4.2016 14.3116 5.79682 14.3116 7.76463C14.3116 9.73244 12.7164 11.3277 10.7486 11.3277C8.78077 11.3277 7.18555 9.73244 7.18555 7.76463Z" fill="#999999"/>
</svg>
