<svg width="17" height="17" viewBox="0 0 17 17" fill="none" xmlns="http://www.w3.org/2000/svg">
<path fill-rule="evenodd" clip-rule="evenodd" d="M0.637695 6.91607C0.637695 6.57005 0.922434 6.28955 1.27368 6.28955H5.52521C5.87646 6.28955 6.1612 6.57005 6.1612 6.91607V16.1384C6.1612 16.4844 5.87646 16.765 5.52521 16.765H1.27368C0.922434 16.765 0.637695 16.4844 0.637695 16.1384V6.91607ZM1.90966 7.54259V15.5119H4.88923V7.54259H1.90966Z" fill="#999999"/>
<path fill-rule="evenodd" clip-rule="evenodd" d="M8.58845 2.0285C8.58136 2.03641 8.57368 2.04521 8.56542 2.05496C8.46705 2.17104 8.34152 2.35482 8.19451 2.60339C7.90326 3.09583 7.57547 3.76029 7.26375 4.44006C6.95373 5.11612 6.66662 5.79187 6.4566 6.29972C6.35173 6.55334 6.26637 6.76437 6.20733 6.91174C6.1883 6.95926 6.172 7.00015 6.15868 7.03369V15.5119H12.3118C13.0159 15.5119 13.6613 15.1082 13.9499 14.4869L13.9501 14.4864C15.5732 10.9994 15.4928 9.17691 15.2025 8.30566C15.0508 7.85432 14.6072 7.54262 14.0989 7.54262H10.76C10.4088 7.54262 10.124 7.26212 10.124 6.9161V3.08092C10.1005 3.03101 10.0509 2.94994 9.95567 2.84321C9.82995 2.70235 9.6575 2.55377 9.45966 2.41958C9.26214 2.2856 9.05487 2.17651 8.86654 2.10583C8.75184 2.06279 8.65886 2.03949 8.58845 2.0285ZM5.5227 6.9161C4.9292 6.69097 4.92922 6.69092 4.92925 6.69084L4.93576 6.67423L4.95421 6.62747C4.97032 6.58673 4.99392 6.52728 5.02417 6.45177C5.08465 6.30079 5.17175 6.08545 5.27864 5.82698C5.49215 5.31068 5.78577 4.61943 6.10457 3.9242C6.42168 3.23268 6.77081 2.52154 7.09547 1.97259C7.25642 1.70046 7.42359 1.4471 7.58902 1.2519C7.67142 1.15468 7.7676 1.05481 7.87646 0.972591C7.97691 0.896732 8.14493 0.792252 8.3652 0.772525L8.3736 0.771828C8.6987 0.746991 9.03155 0.826876 9.31934 0.934879C9.61595 1.04619 9.91269 1.20552 10.181 1.38754C10.4491 1.56935 10.7043 1.78434 10.9109 2.01578C11.1094 2.2382 11.3027 2.51995 11.3789 2.83731C11.3903 2.88458 11.396 2.93299 11.396 2.98156V6.28959H14.0989C15.1295 6.28959 16.0785 6.92369 16.4104 7.91305L16.4107 7.91407C16.8453 9.21704 16.79 11.3917 15.1063 15.0087C14.6062 16.085 13.5028 16.765 12.3118 16.765H5.5227C5.17146 16.765 4.88672 16.4845 4.88672 16.1385V6.9161C4.88672 6.83913 4.90117 6.76268 4.92925 6.69084L5.5227 6.9161ZM8.64903 1.96805C8.64952 1.96766 8.64995 1.96732 8.65032 1.96704C8.65381 1.96441 8.65332 1.96517 8.64903 1.96805Z" fill="#999999"/>
</svg>
