<svg width="141" height="31" viewBox="0 0 141 31" fill="none" xmlns="http://www.w3.org/2000/svg">
<path d="M116.022 24.847H119.405V25.8871H116.022V24.847ZM116.119 27.7632H119.959V28.8227H114.856V22.0183H119.823V23.0779H116.119V27.7632Z" fill="white"/>
<path d="M107.311 28.8227V22.0183H110.285C111.024 22.0183 111.672 22.1609 112.23 22.446C112.787 22.7312 113.221 23.1265 113.532 23.6319C113.843 24.1374 113.999 24.7336 113.999 25.4205C113.999 26.1009 113.843 26.6971 113.532 27.2091C113.221 27.7146 112.787 28.1099 112.23 28.395C111.672 28.6801 111.024 28.8227 110.285 28.8227H107.311ZM108.575 27.7534H110.227C110.739 27.7534 111.18 27.6562 111.549 27.4618C111.925 27.2674 112.213 26.9952 112.414 26.6453C112.622 26.2954 112.725 25.8871 112.725 25.4205C112.725 24.9474 112.622 24.5392 112.414 24.1957C112.213 23.8458 111.925 23.5736 111.549 23.3792C111.18 23.1848 110.739 23.0876 110.227 23.0876H108.575V27.7534Z" fill="white"/>
<path d="M104.693 28.8227V22.0183H105.957V28.8227H104.693Z" fill="white"/>
<path d="M100.435 28.9199C99.5015 28.9199 98.7692 28.6575 98.2378 28.1325C97.7129 27.6076 97.4504 26.8494 97.4504 25.8579V22.0183H98.7141V25.8093C98.7141 26.5092 98.8632 27.0179 99.1613 27.3355C99.4658 27.653 99.8935 27.8118 100.444 27.8118C100.995 27.8118 101.42 27.653 101.718 27.3355C102.016 27.0179 102.165 26.5092 102.165 25.8093V22.0183H103.409V25.8579C103.409 26.8494 103.143 27.6076 102.612 28.1325C102.087 28.6575 101.361 28.9199 100.435 28.9199Z" fill="white"/>
<path d="M93.6647 28.9199C93.1333 28.9199 92.644 28.8357 92.1968 28.6672C91.7562 28.4922 91.3706 28.2492 91.0401 27.9382C90.7096 27.6206 90.4536 27.248 90.2722 26.8203C90.0907 26.3926 90 25.926 90 25.4205C90 24.9151 90.0907 24.4485 90.2722 24.0208C90.4536 23.5931 90.7096 23.2237 91.0401 22.9126C91.3771 22.5951 91.7691 22.3521 92.2163 22.1836C92.6634 22.0086 93.1527 21.9211 93.6841 21.9211C94.2608 21.9211 94.7793 22.0151 95.2394 22.203C95.706 22.391 96.098 22.6664 96.4156 23.0293L95.6185 23.8069C95.3528 23.5412 95.0644 23.3468 94.7534 23.2237C94.4488 23.0941 94.1118 23.0293 93.7424 23.0293C93.386 23.0293 93.0555 23.0876 92.7509 23.2043C92.4463 23.3209 92.1839 23.4862 91.9636 23.7C91.7432 23.9139 91.5715 24.1666 91.4484 24.4582C91.3317 24.7498 91.2734 25.0706 91.2734 25.4205C91.2734 25.764 91.3317 26.0815 91.4484 26.3732C91.5715 26.6648 91.7432 26.9208 91.9636 27.1411C92.1839 27.3549 92.4431 27.5202 92.7412 27.6368C93.0393 27.7535 93.3698 27.8118 93.7327 27.8118C94.0697 27.8118 94.3937 27.76 94.7048 27.6563C95.0223 27.5461 95.3236 27.3647 95.6088 27.1119L96.3281 28.0548C95.9717 28.34 95.5569 28.557 95.0839 28.7061C94.6173 28.8487 94.1442 28.9199 93.6647 28.9199ZM95.1325 27.8896V25.3428H96.3281V28.0548L95.1325 27.8896Z" fill="white"/>
<path d="M134.954 18.2185V11.4141H135.994L140.261 16.6534H139.746V11.4141H141V18.2185H139.96L135.693 12.9791H136.208V18.2185H134.954Z" fill="white"/>
<path d="M130.445 18.3157C129.914 18.3157 129.425 18.2282 128.978 18.0532C128.531 17.8783 128.142 17.6353 127.811 17.3242C127.481 17.0067 127.225 16.6373 127.043 16.2161C126.862 15.7884 126.771 15.3218 126.771 14.8163C126.771 14.3108 126.862 13.8475 127.043 13.4263C127.225 12.9986 127.481 12.6292 127.811 12.3181C128.142 12.0006 128.531 11.7543 128.978 11.5793C129.425 11.4044 129.911 11.3169 130.436 11.3169C130.967 11.3169 131.453 11.4044 131.894 11.5793C132.341 11.7543 132.73 12.0006 133.06 12.3181C133.391 12.6292 133.647 12.9986 133.828 13.4263C134.01 13.8475 134.1 14.3108 134.1 14.8163C134.1 15.3218 134.01 15.7884 133.828 16.2161C133.647 16.6438 133.391 17.0131 133.06 17.3242C132.73 17.6353 132.341 17.8783 131.894 18.0532C131.453 18.2282 130.97 18.3157 130.445 18.3157ZM130.436 17.2076C130.779 17.2076 131.097 17.1492 131.388 17.0326C131.68 16.9159 131.933 16.7507 132.147 16.5368C132.36 16.3165 132.526 16.0638 132.642 15.7786C132.765 15.487 132.827 15.1662 132.827 14.8163C132.827 14.4664 132.765 14.1488 132.642 13.8637C132.526 13.5721 132.36 13.3193 132.147 13.1055C131.933 12.8851 131.68 12.7167 131.388 12.6C131.097 12.4834 130.779 12.425 130.436 12.425C130.092 12.425 129.775 12.4834 129.483 12.6C129.198 12.7167 128.945 12.8851 128.725 13.1055C128.511 13.3193 128.343 13.5721 128.219 13.8637C128.103 14.1488 128.045 14.4664 128.045 14.8163C128.045 15.1598 128.103 15.4773 128.219 15.7689C128.343 16.0605 128.511 16.3165 128.725 16.5368C128.939 16.7507 129.192 16.9159 129.483 17.0326C129.775 17.1492 130.092 17.2076 130.436 17.2076Z" fill="white"/>
<path d="M123.371 18.2185V12.4833H121.116V11.4141H126.89V12.4833H124.635V18.2185H123.371Z" fill="white"/>
<path d="M119.372 18.2185V11.4141H120.636V18.2185H119.372Z" fill="white"/>
<path d="M112.464 18.2185V11.4141H115.652C116.468 11.4141 117.091 11.5761 117.518 11.9001C117.946 12.2176 118.16 12.6453 118.16 13.1832C118.16 13.5461 118.076 13.8572 117.907 14.1164C117.739 14.3691 117.512 14.5668 117.227 14.7093C116.948 14.8454 116.643 14.9135 116.313 14.9135L116.488 14.5635C116.87 14.5635 117.214 14.6348 117.518 14.7774C117.823 14.9135 118.063 15.1144 118.238 15.3801C118.419 15.6457 118.51 15.9762 118.51 16.3716C118.51 16.9548 118.286 17.4084 117.839 17.7324C117.392 18.0564 116.728 18.2185 115.846 18.2185H112.464ZM113.727 17.227H115.769C116.242 17.227 116.605 17.1492 116.857 16.9937C117.11 16.8381 117.236 16.5886 117.236 16.2452C117.236 15.9082 117.11 15.6619 116.857 15.5064C116.605 15.3444 116.242 15.2634 115.769 15.2634H113.63V14.2816H115.516C115.956 14.2816 116.293 14.2039 116.527 14.0483C116.767 13.8928 116.886 13.6595 116.886 13.3485C116.886 13.0309 116.767 12.7944 116.527 12.6389C116.293 12.4833 115.956 12.4056 115.516 12.4056H113.727V17.227Z" fill="white"/>
<path d="M109.846 18.2185V11.4141H111.109V18.2185H109.846Z" fill="white"/>
<path d="M107.245 11.4141H108.508V18.2185H107.245V11.4141ZM103.726 18.2185H102.462V11.4141H103.726V18.2185ZM107.342 15.3023H103.619V14.2233H107.342V15.3023Z" fill="white"/>
<path d="M95.6098 18.2185L98.4774 14.2719V15.2245L95.7459 11.4141H97.1748L99.2064 14.233L98.6232 14.2427L100.635 11.4141H102.006L99.2939 15.1565V14.2427L102.181 18.2185H100.723L98.5843 15.2245H99.1578L97.0484 18.2185H95.6098Z" fill="white"/>
<path d="M91.6525 14.2427H95.0352V15.2828H91.6525V14.2427ZM91.7497 17.1589H95.5893V18.2185H90.486V11.4141H95.4532V12.4736H91.7497V17.1589Z" fill="white"/>
<path d="M117.001 7.61421V0.809814H118.041L122.309 6.0492H121.793V0.809814H123.047V7.61421H122.007L117.74 2.37483H118.255V7.61421H117.001Z" fill="white"/>
<path d="M109.244 7.61421L112.306 0.809814H113.55L116.622 7.61421H115.3L112.666 1.48053H113.171L110.547 7.61421H109.244ZM110.653 6.03948L110.994 5.04798H114.668L115.008 6.03948H110.653Z" fill="white"/>
<path d="M106.688 7.71145C106.157 7.71145 105.648 7.63693 105.162 7.48788C104.676 7.33235 104.291 7.1347 104.005 6.89492L104.443 5.91315C104.715 6.127 105.052 6.30521 105.454 6.44778C105.856 6.59035 106.267 6.66163 106.688 6.66163C107.045 6.66163 107.333 6.62275 107.553 6.54498C107.774 6.46722 107.936 6.36353 108.039 6.23393C108.143 6.09784 108.195 5.94555 108.195 5.77706C108.195 5.56969 108.12 5.40444 107.971 5.28131C107.822 5.1517 107.628 5.05126 107.388 4.97997C107.155 4.90221 106.892 4.83092 106.601 4.76612C106.316 4.70132 106.027 4.62679 105.736 4.54255C105.451 4.45182 105.188 4.33842 104.948 4.20233C104.715 4.05976 104.524 3.87183 104.375 3.63854C104.226 3.40524 104.151 3.10715 104.151 2.74424C104.151 2.37486 104.248 2.03788 104.443 1.73331C104.644 1.42225 104.945 1.17599 105.347 0.994543C105.755 0.806612 106.27 0.712646 106.892 0.712646C107.301 0.712646 107.706 0.76449 108.108 0.868176C108.509 0.971862 108.859 1.12091 109.157 1.31532L108.759 2.2971C108.454 2.11565 108.14 1.9828 107.816 1.89856C107.492 1.80783 107.181 1.76247 106.883 1.76247C106.533 1.76247 106.248 1.80459 106.027 1.88883C105.813 1.97308 105.655 2.08325 105.551 2.21933C105.454 2.35542 105.405 2.51095 105.405 2.68592C105.405 2.89329 105.476 3.06178 105.619 3.19139C105.768 3.31452 105.959 3.41172 106.193 3.48301C106.432 3.55429 106.698 3.62558 106.99 3.69686C107.281 3.76166 107.57 3.83619 107.855 3.92043C108.146 4.00468 108.409 4.11484 108.642 4.25093C108.882 4.38702 109.073 4.57171 109.216 4.805C109.365 5.0383 109.439 5.33315 109.439 5.68957C109.439 6.05248 109.339 6.38945 109.138 6.70051C108.943 7.00509 108.642 7.25135 108.234 7.43928C107.826 7.62073 107.31 7.71145 106.688 7.71145Z" fill="white"/>
<path d="M100.321 7.71141C99.3876 7.71141 98.6553 7.44896 98.1239 6.92405C97.599 6.39914 97.3365 5.64093 97.3365 4.64944V0.809814H98.6002V4.60083C98.6002 5.30071 98.7493 5.80942 99.0474 6.12696C99.3519 6.4445 99.7796 6.60327 100.33 6.60327C100.881 6.60327 101.306 6.4445 101.604 6.12696C101.902 5.80942 102.051 5.30071 102.051 4.60083V0.809814H103.295V4.64944C103.295 5.64093 103.03 6.39914 102.498 6.92405C101.973 7.44896 101.247 7.71141 100.321 7.71141Z" fill="white"/>
<path d="M90.486 7.61421V0.809814H93.6744C94.4909 0.809814 95.113 0.971824 95.5407 1.29584C95.9684 1.61338 96.1823 2.04109 96.1823 2.57896C96.1823 2.94186 96.098 3.25292 95.9295 3.51213C95.761 3.76487 95.5342 3.96252 95.2491 4.10509C94.9704 4.24117 94.6659 4.30922 94.3354 4.30922L94.5103 3.95928C94.8927 3.95928 95.2361 4.03056 95.5407 4.17313C95.8453 4.30922 96.0851 4.51011 96.26 4.7758C96.4415 5.0415 96.5322 5.372 96.5322 5.7673C96.5322 6.35054 96.3086 6.80416 95.8615 7.12818C95.4143 7.4522 94.7501 7.61421 93.8688 7.61421H90.486ZM91.7497 6.62271H93.791C94.2641 6.62271 94.627 6.54495 94.8797 6.38942C95.1325 6.23389 95.2588 5.98439 95.2588 5.64093C95.2588 5.30395 95.1325 5.0577 94.8797 4.90217C94.627 4.74016 94.2641 4.65916 93.791 4.65916H91.6525V3.67738H93.5383C93.9789 3.67738 94.3159 3.59962 94.5492 3.44409C94.789 3.28856 94.9089 3.05526 94.9089 2.74421C94.9089 2.42667 94.789 2.19013 94.5492 2.03461C94.3159 1.87908 93.9789 1.80131 93.5383 1.80131H91.7497V6.62271Z" fill="white"/>
<g clip-path="url(#clip0_13_203)">
<path d="M47.58 17.9399H50.23V11.9699H47.58V7.20994H51.94V0.939941H29.65V29.4099H52.47V23.1499H47.58V17.9399Z" stroke="white" stroke-width="0.75"/>
<path d="M50.23 14.5801H29.65" stroke="white" stroke-width="0.75"/>
<path d="M82.13 14.5801H70.31H54.48" stroke="white" stroke-width="0.75"/>
<path d="M22.68 14.75C22.52 14.68 22.34 14.64 22.17 14.58C23.32 13.98 24.23 13.21 24.89 12.25C25.65 11.14 26.03 9.84995 26.03 8.38995C26.03 6.18995 25.11 4.40995 23.26 3.01995C21.42 1.63995 18.61 0.949951 14.84 0.949951H0.380005V29.42H15.67C19.52 29.42 22.44 28.73 24.43 27.35C26.42 25.97 27.42 24.06 27.42 21.62C27.42 19.99 27.01 18.6 26.18 17.43C25.35 16.26 24.19 15.38 22.68 14.77V14.75Z" stroke="white" stroke-width="0.75"/>
<path d="M22.18 14.5801H0.369995" stroke="white" stroke-width="0.75"/>
<path d="M82.13 26.3601C80.48 27.5201 78.58 28.4201 76.46 29.0401C74.33 29.6701 72.23 29.9801 70.17 29.9801C67.9 29.9801 65.81 29.6201 63.91 28.9001C62.01 28.1801 60.36 27.1601 58.95 25.8501C57.54 24.5301 56.44 22.9701 55.65 21.1501C54.87 19.3401 54.47 17.3401 54.47 15.1701C54.47 13.0001 54.87 11.0101 55.65 9.19012C56.44 7.38012 57.54 5.81012 58.97 4.50012C60.39 3.18012 62.07 2.17012 63.99 1.45012C65.92 0.730117 68.04 0.370117 70.38 0.370117C73.03 0.370117 75.42 0.820117 77.53 1.71012C79.33 2.48012 80.87 3.52012 82.13 4.85012V26.3601Z" stroke="white" stroke-width="0.75"/>
<path d="M70.31 29.9899V14.5799V0.379883" stroke="white" stroke-width="0.75"/>
</g>
<defs>
<clipPath id="clip0_13_203">
<rect width="82.51" height="30.36" fill="white"/>
</clipPath>
</defs>
</svg>
