<svg width="141" height="31" viewBox="0 0 141 31" fill="none" xmlns="http://www.w3.org/2000/svg">
<path d="M116.022 24.8472H119.405V25.8873H116.022V24.8472ZM116.12 27.7634H119.959V28.8229H114.856V22.0186H119.823V23.0781H116.12V27.7634Z" fill="black"/>
<path d="M107.311 28.8229V22.0186H110.286C111.024 22.0186 111.672 22.1611 112.23 22.4463C112.787 22.7314 113.221 23.1267 113.532 23.6322C113.843 24.1376 113.999 24.7338 113.999 25.4208C113.999 26.1012 113.843 26.6974 113.532 27.2093C113.221 27.7148 112.787 28.1101 112.23 28.3952C111.672 28.6804 111.024 28.8229 110.286 28.8229H107.311ZM108.575 27.7537H110.227C110.739 27.7537 111.18 27.6565 111.549 27.4621C111.925 27.2677 112.213 26.9955 112.414 26.6455C112.622 26.2956 112.725 25.8873 112.725 25.4208C112.725 24.9477 112.622 24.5394 112.414 24.196C112.213 23.846 111.925 23.5738 111.549 23.3794C111.18 23.185 110.739 23.0878 110.227 23.0878H108.575V27.7537Z" fill="black"/>
<path d="M104.693 28.8229V22.0186H105.957V28.8229H104.693Z" fill="black"/>
<path d="M100.435 28.9202C99.5017 28.9202 98.7694 28.6577 98.238 28.1328C97.7131 27.6079 97.4507 26.8497 97.4507 25.8582V22.0186H98.7144V25.8096C98.7144 26.5095 98.8634 27.0182 99.1615 27.3357C99.4661 27.6532 99.8938 27.812 100.445 27.812C100.995 27.812 101.42 27.6532 101.718 27.3357C102.016 27.0182 102.165 26.5095 102.165 25.8096V22.0186H103.409V25.8582C103.409 26.8497 103.144 27.6079 102.612 28.1328C102.087 28.6577 101.362 28.9202 100.435 28.9202Z" fill="black"/>
<path d="M93.6647 28.9207C93.1333 28.9207 92.644 28.8364 92.1968 28.6679C91.7562 28.493 91.3706 28.25 91.0401 27.9389C90.7096 27.6214 90.4536 27.2487 90.2722 26.821C90.0907 26.3933 90 25.9267 90 25.4213C90 24.9158 90.0907 24.4492 90.2722 24.0215C90.4536 23.5938 90.7096 23.2244 91.0401 22.9134C91.3771 22.5958 91.7691 22.3528 92.2163 22.1843C92.6634 22.0094 93.1527 21.9219 93.6841 21.9219C94.2608 21.9219 94.7793 22.0158 95.2394 22.2038C95.706 22.3917 96.098 22.6671 96.4156 23.03L95.6185 23.8077C95.3528 23.542 95.0644 23.3476 94.7534 23.2244C94.4488 23.0948 94.1118 23.03 93.7424 23.03C93.386 23.03 93.0555 23.0883 92.7509 23.205C92.4463 23.3216 92.1839 23.4869 91.9636 23.7007C91.7432 23.9146 91.5715 24.1673 91.4484 24.4589C91.3317 24.7506 91.2734 25.0713 91.2734 25.4213C91.2734 25.7647 91.3317 26.0823 91.4484 26.3739C91.5715 26.6655 91.7432 26.9215 91.9636 27.1418C92.1839 27.3557 92.4431 27.5209 92.7412 27.6376C93.0393 27.7542 93.3698 27.8125 93.7327 27.8125C94.0697 27.8125 94.3937 27.7607 94.7048 27.657C95.0223 27.5468 95.3236 27.3654 95.6088 27.1127L96.3281 28.0556C95.9717 28.3407 95.5569 28.5578 95.0839 28.7068C94.6173 28.8494 94.1442 28.9207 93.6647 28.9207ZM95.1325 27.8903V25.3435H96.3281V28.0556L95.1325 27.8903Z" fill="black"/>
<path d="M134.954 18.2185V11.4141H135.994L140.261 16.6534H139.746V11.4141H141V18.2185H139.96L135.692 12.9791H136.208V18.2185H134.954Z" fill="black"/>
<path d="M130.445 18.3162C129.914 18.3162 129.425 18.2287 128.978 18.0537C128.53 17.8788 128.142 17.6357 127.811 17.3247C127.481 17.0072 127.225 16.6378 127.043 16.2165C126.862 15.7888 126.771 15.3223 126.771 14.8168C126.771 14.3113 126.862 13.848 127.043 13.4267C127.225 12.999 127.481 12.6297 127.811 12.3186C128.142 12.0011 128.53 11.7548 128.978 11.5798C129.425 11.4049 129.911 11.3174 130.436 11.3174C130.967 11.3174 131.453 11.4049 131.894 11.5798C132.341 11.7548 132.73 12.0011 133.06 12.3186C133.391 12.6297 133.647 12.999 133.828 13.4267C134.01 13.848 134.1 14.3113 134.1 14.8168C134.1 15.3223 134.01 15.7888 133.828 16.2165C133.647 16.6443 133.391 17.0136 133.06 17.3247C132.73 17.6357 132.341 17.8788 131.894 18.0537C131.453 18.2287 130.97 18.3162 130.445 18.3162ZM130.436 17.208C130.779 17.208 131.097 17.1497 131.388 17.0331C131.68 16.9164 131.933 16.7512 132.146 16.5373C132.36 16.317 132.526 16.0643 132.642 15.7791C132.765 15.4875 132.827 15.1667 132.827 14.8168C132.827 14.4668 132.765 14.1493 132.642 13.8642C132.526 13.5726 132.36 13.3198 132.146 13.106C131.933 12.8856 131.68 12.7171 131.388 12.6005C131.097 12.4839 130.779 12.4255 130.436 12.4255C130.092 12.4255 129.775 12.4839 129.483 12.6005C129.198 12.7171 128.945 12.8856 128.725 13.106C128.511 13.3198 128.342 13.5726 128.219 13.8642C128.103 14.1493 128.044 14.4668 128.044 14.8168C128.044 15.1602 128.103 15.4778 128.219 15.7694C128.342 16.061 128.511 16.317 128.725 16.5373C128.939 16.7512 129.191 16.9164 129.483 17.0331C129.775 17.1497 130.092 17.208 130.436 17.208Z" fill="black"/>
<path d="M123.371 18.2185V12.4833H121.116V11.4141H126.89V12.4833H124.635V18.2185H123.371Z" fill="black"/>
<path d="M119.373 18.2185V11.4141H120.636V18.2185H119.373Z" fill="black"/>
<path d="M112.463 18.2185V11.4141H115.652C116.468 11.4141 117.09 11.5761 117.518 11.9001C117.946 12.2176 118.16 12.6453 118.16 13.1832C118.16 13.5461 118.075 13.8572 117.907 14.1164C117.738 14.3691 117.512 14.5668 117.226 14.7093C116.948 14.8454 116.643 14.9135 116.313 14.9135L116.488 14.5635C116.87 14.5635 117.213 14.6348 117.518 14.7774C117.823 14.9135 118.062 15.1144 118.237 15.3801C118.419 15.6457 118.51 15.9762 118.51 16.3716C118.51 16.9548 118.286 17.4084 117.839 17.7324C117.392 18.0564 116.727 18.2185 115.846 18.2185H112.463ZM113.727 17.227H115.768C116.241 17.227 116.604 17.1492 116.857 16.9937C117.11 16.8381 117.236 16.5886 117.236 16.2452C117.236 15.9082 117.11 15.6619 116.857 15.5064C116.604 15.3444 116.241 15.2634 115.768 15.2634H113.63V14.2816H115.516C115.956 14.2816 116.293 14.2039 116.527 14.0483C116.766 13.8928 116.886 13.6595 116.886 13.3485C116.886 13.0309 116.766 12.7944 116.527 12.6389C116.293 12.4833 115.956 12.4056 115.516 12.4056H113.727V17.227Z" fill="black"/>
<path d="M109.846 18.2185V11.4141H111.109V18.2185H109.846Z" fill="black"/>
<path d="M107.244 11.4141H108.508V18.2185H107.244V11.4141ZM103.726 18.2185H102.462V11.4141H103.726V18.2185ZM107.342 15.3023H103.619V14.2233H107.342V15.3023Z" fill="black"/>
<path d="M95.6099 18.2185L98.4774 14.2719V15.2245L95.746 11.4141H97.1749L99.2065 14.233L98.6232 14.2427L100.635 11.4141H102.006L99.294 15.1565V14.2427L102.181 18.2185H100.723L98.5844 15.2245H99.1579L97.0485 18.2185H95.6099Z" fill="black"/>
<path d="M91.6523 14.2427H95.0351V15.2828H91.6523V14.2427ZM91.7495 17.1589H95.5891V18.2185H90.4858V11.4141H95.453V12.4736H91.7495V17.1589Z" fill="black"/>
<path d="M117.001 7.61494V0.810547H118.041L122.308 6.04993H121.793V0.810547H123.047V7.61494H122.007L117.74 2.37556H118.255V7.61494H117.001Z" fill="black"/>
<path d="M109.244 7.61494L112.306 0.810547H113.55L116.622 7.61494H115.3L112.666 1.48127H113.171L110.547 7.61494H109.244ZM110.654 6.04021L110.994 5.04871H114.668L115.008 6.04021H110.654Z" fill="black"/>
<path d="M106.688 7.7117C106.157 7.7117 105.648 7.63717 105.162 7.48812C104.676 7.33259 104.291 7.13494 104.005 6.89517L104.443 5.91339C104.715 6.12724 105.052 6.30545 105.454 6.44802C105.856 6.59059 106.267 6.66188 106.688 6.66188C107.045 6.66188 107.333 6.62299 107.553 6.54523C107.774 6.46746 107.936 6.36378 108.039 6.23417C108.143 6.09808 108.195 5.94579 108.195 5.7773C108.195 5.56993 108.12 5.40468 107.971 5.28156C107.822 5.15195 107.628 5.0515 107.388 4.98022C107.155 4.90245 106.892 4.83117 106.601 4.76637C106.316 4.70156 106.027 4.62704 105.736 4.54279C105.45 4.45207 105.188 4.33866 104.948 4.20257C104.715 4.06 104.524 3.87207 104.375 3.63878C104.226 3.40549 104.151 3.10739 104.151 2.74449C104.151 2.37511 104.248 2.03813 104.443 1.73355C104.644 1.42249 104.945 1.17624 105.347 0.994787C105.755 0.806856 106.27 0.712891 106.892 0.712891C107.301 0.712891 107.706 0.764734 108.107 0.86842C108.509 0.972106 108.859 1.12115 109.157 1.31557L108.759 2.29734C108.454 2.11589 108.14 1.98304 107.816 1.8988C107.492 1.80807 107.181 1.76271 106.883 1.76271C106.533 1.76271 106.248 1.80483 106.027 1.88908C105.813 1.97332 105.655 2.08349 105.551 2.21958C105.454 2.35567 105.405 2.51119 105.405 2.68617C105.405 2.89354 105.476 3.06203 105.619 3.19163C105.768 3.31476 105.959 3.41197 106.192 3.48325C106.432 3.55454 106.698 3.62582 106.99 3.6971C107.281 3.76191 107.57 3.83643 107.855 3.92068C108.146 4.00492 108.409 4.11509 108.642 4.25118C108.882 4.38726 109.073 4.57195 109.216 4.80525C109.365 5.03854 109.439 5.3334 109.439 5.68982C109.439 6.05272 109.339 6.3897 109.138 6.70076C108.943 7.00533 108.642 7.25159 108.234 7.43952C107.826 7.62097 107.31 7.7117 106.688 7.7117Z" fill="black"/>
<path d="M100.321 7.71215C99.3875 7.71215 98.6552 7.44969 98.1238 6.92478C97.5989 6.39987 97.3364 5.64167 97.3364 4.65017V0.810547H98.6001V4.60157C98.6001 5.30145 98.7491 5.81016 99.0472 6.12769C99.3518 6.44523 99.7795 6.604 100.33 6.604C100.881 6.604 101.306 6.44523 101.604 6.12769C101.902 5.81016 102.051 5.30145 102.051 4.60157V0.810547H103.295V4.65017C103.295 5.64167 103.029 6.39987 102.498 6.92478C101.973 7.44969 101.247 7.71215 100.321 7.71215Z" fill="black"/>
<path d="M90.4858 7.61494V0.810547H93.6742C94.4907 0.810547 95.1128 0.972556 95.5405 1.29658C95.9682 1.61411 96.1821 2.04182 96.1821 2.57969C96.1821 2.94259 96.0978 3.25365 95.9294 3.51286C95.7609 3.7656 95.5341 3.96325 95.2489 4.10582C94.9703 4.24191 94.6657 4.30995 94.3352 4.30995L94.5102 3.96001C94.8925 3.96001 95.236 4.03129 95.5405 4.17386C95.8451 4.30995 96.0849 4.51084 96.2599 4.77654C96.4413 5.04223 96.532 5.37273 96.532 5.76803C96.532 6.35127 96.3085 6.80489 95.8613 7.12891C95.4142 7.45293 94.7499 7.61494 93.8686 7.61494H90.4858ZM91.7495 6.62344H93.7908C94.2639 6.62344 94.6268 6.54568 94.8795 6.39015C95.1323 6.23462 95.2586 5.98513 95.2586 5.64167C95.2586 5.30469 95.1323 5.05843 94.8795 4.9029C94.6268 4.74089 94.2639 4.65989 93.7908 4.65989H91.6523V3.67811H93.5381C93.9788 3.67811 94.3157 3.60035 94.549 3.44482C94.7888 3.28929 94.9087 3.056 94.9087 2.74494C94.9087 2.4274 94.7888 2.19087 94.549 2.03534C94.3157 1.87981 93.9788 1.80204 93.5381 1.80204H91.7495V6.62344Z" fill="black"/>
<g clip-path="url(#clip0_161_1749)">
<path d="M47.5799 17.9404H50.2299V11.9704H47.5799V7.21043H51.9399V0.94043H29.6499V29.4104H52.4699V23.1504H47.5799V17.9404Z" stroke="black" stroke-width="0.75"/>
<path d="M50.2299 14.5801H29.6499" stroke="black" stroke-width="0.75"/>
<path d="M82.13 14.5801H70.31H54.48" stroke="black" stroke-width="0.75"/>
<path d="M22.6799 14.7502C22.5199 14.6802 22.3399 14.6402 22.1699 14.5802C23.3199 13.9802 24.2299 13.2102 24.8899 12.2502C25.6499 11.1402 26.0299 9.8502 26.0299 8.3902C26.0299 6.1902 25.1099 4.4102 23.2599 3.0202C21.4199 1.6402 18.6099 0.950195 14.8399 0.950195H0.379883V29.4202H15.6699C19.5199 29.4202 22.4399 28.7302 24.4299 27.3502C26.4199 25.9702 27.4199 24.0602 27.4199 21.6202C27.4199 19.9902 27.0099 18.6002 26.1799 17.4302C25.3499 16.2602 24.1899 15.3802 22.6799 14.7702V14.7502Z" stroke="black" stroke-width="0.75"/>
<path d="M22.1801 14.5801H0.370117" stroke="black" stroke-width="0.75"/>
<path d="M82.1302 26.3601C80.4802 27.5201 78.5802 28.4201 76.4602 29.0401C74.3302 29.6701 72.2302 29.9801 70.1702 29.9801C67.9002 29.9801 65.8102 29.6201 63.9102 28.9001C62.0102 28.1801 60.3602 27.1601 58.9502 25.8501C57.5402 24.5301 56.4402 22.9701 55.6502 21.1501C54.8702 19.3401 54.4702 17.3401 54.4702 15.1701C54.4702 13.0001 54.8702 11.0101 55.6502 9.19012C56.4402 7.38012 57.5402 5.81012 58.9702 4.50012C60.3902 3.18012 62.0702 2.17012 63.9902 1.45012C65.9202 0.730117 68.0402 0.370117 70.3802 0.370117C73.0302 0.370117 75.4202 0.820117 77.5302 1.71012C79.3302 2.48012 80.8702 3.52012 82.1302 4.85012V26.3601Z" stroke="black" stroke-width="0.75"/>
<path d="M70.3101 29.9899V14.5799V0.379883" stroke="black" stroke-width="0.75"/>
</g>
<defs>
<clipPath id="clip0_161_1749">
<rect width="82.51" height="30.36" fill="white"/>
</clipPath>
</defs>
</svg>
