<svg width="20" height="30" viewBox="0 0 20 30" fill="none" xmlns="http://www.w3.org/2000/svg">
<path d="M9.61169 0C4.30604 0 0 4.61959 0 10.3101C0 14.6561 5.59016 24.161 8.25067 28.4367C8.90427 29.4841 10.3345 29.4841 10.9881 28.4367C13.6409 24.1688 19.2388 14.6561 19.2388 10.3101C19.2311 4.61959 14.925 0 9.61169 0ZM9.61169 15.6722C6.85121 15.6722 4.61361 13.2725 4.61361 10.3101C4.61361 7.34758 6.85121 4.94789 9.61169 4.94789C12.3722 4.94789 14.6098 7.34758 14.6098 10.3101C14.6098 13.2725 12.3722 15.6722 9.61169 15.6722Z" fill="#FF7070"/>
</svg>
