<svg width="20" height="30" viewBox="0 0 20 30" fill="none" xmlns="http://www.w3.org/2000/svg">
<g clip-path="url(#clip0_358_17)">
<path d="M9.60986 4.95001C6.84986 4.95001 4.60986 7.35001 4.60986 10.31C4.60986 13.27 6.84986 15.67 9.60986 15.67C12.3699 15.67 14.6099 13.27 14.6099 10.31C14.6099 7.35001 12.3699 4.95001 9.60986 4.95001Z" fill="white"/>
<path d="M9.61 0C4.31 0 0 4.62 0 10.31C0 14.66 5.59 24.16 8.25 28.44C8.9 29.49 10.33 29.49 10.99 28.44C13.64 24.17 19.24 14.66 19.24 10.31C19.24 4.62 14.93 0 9.61 0ZM9.61 15.67C6.85 15.67 4.61 13.27 4.61 10.31C4.61 7.35 6.85 4.95 9.61 4.95C12.37 4.95 14.61 7.35 14.61 10.31C14.61 13.27 12.37 15.67 9.61 15.67Z" fill="#7098FF"/>
</g>
<defs>
<clipPath id="clip0_358_17">
<rect width="19.24" height="29.22" fill="white"/>
</clipPath>
</defs>
</svg>
